# xmcd
#
# Track frame offsets: 
#        150
#        13466
#        25497
#        37274
#        49770
#        63266
#        75251
#        88038
#        101966
#        114738
#        127689
#        141074
#        154765
#        166978
#        179894
#        191212
#        202029
#        215926
#        227956
#        240954
#
# Disc length: 3381 seconds
#
# Revision: 0
# Processed by: cddbd v1.5.2PL0 Copyright (c) Steve Scherf et al.
# Submitted via: ExactAudioCopy v1.0b3
#
DISCID=280d3314
DTITLE=Merle Travis - Hot Pickin' - Disc 1
DYEAR=2010
DGENRE=Country
TTITLE0=Will the Circle Be Unbroken
TTITLE1=No Vacancy
TTITLE2=Cincinnati Lou
TTITLE3=What a Shame
TTITLE4=Divorce Me C.O.D.
TTITLE5=Nine Pound Hammer
TTITLE6=Sixteen Tons
TTITLE7=John Henry
TTITLE8=I Am a Pilgrim
TTITLE9=Sweet Temptation
TTITLE10=So Round, So Firm, So Fully Packed
TTITLE11=I'm Sick and Tired of You, Little Darling
TTITLE12=Steel Guitar Rag
TTITLE13=Lawdy, What a Gal
TTITLE14=Sioux City Sue
TTITLE15=I Like My Chicken Fryin' Size
TTITLE16=Merle's Boogie Woogie
TTITLE17=Kentucky Means Paradise
TTITLE18=I'm a Natural Born Gamblin' Man
TTITLE19=Crazy Boogie
EXTD=
EXTT0=
EXTT1=
EXTT2=
EXTT3=
EXTT4=
EXTT5=
EXTT6=
EXTT7=
EXTT8=
EXTT9=
EXTT10=
EXTT11=
EXTT12=
EXTT13=
EXTT14=
EXTT15=
EXTT16=
EXTT17=
EXTT18=
EXTT19=
PLAYORDER=
